<?xml version="1.0" encoding="UTF-8"?>
<svg width="107px" height="98px" viewBox="0 0 107 98" version="1.1" xmlns="http://www.w3.org/2000/svg" xmlns:xlink="http://www.w3.org/1999/xlink">
    <!-- Generator: Sketch 52.5 (67469) - http://www.bohemiancoding.com/sketch -->
    <title>WebLogo</title>
    <desc>Created with Sketch.</desc>
    <g id="Page-1" stroke="none" stroke-width="1" fill="none" fill-rule="evenodd">
        <g id="Desktop-HD" transform="translate(-792.000000, -1207.000000)" fill-rule="nonzero">
            <g id="WebProducts-Copy-2" transform="translate(782.000000, 1207.000000)">
                <g id="WebLogo" transform="translate(5.000000, 0.000000)">
                    <g id="WebRed" transform="translate(25.000000, 5.000000)">
                        <rect id="Rectangle" stroke="#FF004C" stroke-width="6" x="3" y="3.79999924" width="81" height="81"></rect>
                        <circle id="Oval" fill="#FF004C" cx="15" cy="16" r="4"></circle>
                        <circle id="Oval-Copy" fill="#FF004C" cx="28" cy="16" r="4"></circle>
                        <circle id="Oval-Copy-2" fill="#FF004C" cx="41" cy="16" r="4"></circle>
                    </g>
                    <g id="WebBlue" transform="translate(20.000000, 0.000000)">
                        <rect id="Rectangle" stroke="#005DF5" stroke-width="6" x="3" y="3.79999924" width="81" height="81"></rect>
                        <circle id="Oval" fill="#005DF5" cx="19" cy="20" r="4"></circle>
                        <circle id="Oval-Copy" fill="#005DF5" cx="32" cy="20" r="4"></circle>
                        <circle id="Oval-Copy-2" fill="#005DF5" cx="45" cy="20" r="4"></circle>
                    </g>
                    <g id="INTERIOR" transform="translate(37.000000, 32.000000)">
                        <rect id="Rectangle" fill="#FF004C" x="3" y="3" width="51" height="22"></rect>
                        <rect id="Rectangle" fill="#005DF5" x="0" y="0" width="51" height="22"></rect>
                    </g>
                    <g id="Gear1" transform="translate(31.637984, 70.421910) rotate(-10.000000) translate(-31.637984, -70.421910) translate(5.137984, 43.421910)" fill="#FFFFFF">
                        <g id="Group" transform="translate(0.578793, 0.808802)">
                            <path d="M22.594418,9.52185813e-06 C21.8705456,-0.00280962747 21.1868625,0.62086514 21.0039941,1.21576767 L19.551868,6.39595456 C18.5316236,6.73762982 17.5531008,7.14006903 16.6130413,7.62933239 L11.9973547,5.02161926 C11.3706779,4.66341251 10.5162635,4.78457391 10.0093249,5.3035342 L5.22076615,10.2018062 C4.71930965,10.7160528 4.60098212,11.5753746 4.94417069,12.2104501 L7.50267863,16.9325308 C7.02746551,17.8821331 6.62567189,18.8804502 6.29257352,19.9102291 L1.2101322,21.3902825 C0.516458464,21.5892581 -0.00432651736,22.2944965 2.70950543e-05,23.0289412 L2.70950543e-05,29.9711021 C0.00334624048,30.6996831 0.522012501,31.3947161 1.2101322,31.592113 L6.27528631,33.0545185 C6.60933617,34.0921346 7.02442849,35.0935528 7.50267863,36.0498647 L4.94417069,40.7719398 C4.60098212,41.4070377 4.71930965,42.2663708 5.22076615,42.7805837 L10.0093249,47.6788556 C10.5162635,48.1978046 11.3706779,48.3189717 11.9973547,47.9607706 L16.6130413,45.3530574 C17.5537259,45.8426309 18.5308934,46.2622895 19.551868,46.6040832 L21.0039941,51.7666222 C21.1976441,52.4679701 21.8795736,52.9968426 22.594418,53 L29.405581,53 C30.1204254,52.9943617 30.8023548,52.4679701 30.9960049,51.7666222 L32.448131,46.6040832 C33.4691056,46.2622895 34.4462731,45.8426309 35.3869577,45.3530574 L40.0026443,47.9607706 C40.6293211,48.3189717 41.4837355,48.1978046 41.9906741,47.6788556 L46.7792328,42.7805837 C47.2806893,42.2663708 47.3990169,41.4070377 47.0558283,40.7719398 L44.4973204,36.0498647 C44.975565,35.0935528 45.3906684,34.0921346 45.7247127,33.0545185 L50.7898669,31.592113 C51.4779866,31.3947161 51.9968465,30.6996831 51.999972,29.9711021 L51.999972,23.0289412 C52.0043975,22.2944965 51.4835406,21.5892581 50.7898669,21.3902825 L45.7074255,19.9102291 C45.3743271,18.8804502 44.9725279,17.8821331 44.4973204,16.9325308 L47.0558283,12.2104501 C47.3990169,11.5753746 47.2806893,10.7160528 46.7792328,10.2018062 L41.9906741,5.3035342 C41.4837355,4.78457391 40.6293211,4.66341251 40.0026443,5.02161926 L35.3869577,7.62933239 C34.4468982,7.14006903 33.4683754,6.73762982 32.448131,6.39595456 L30.9960049,1.21576767 C30.7961259,0.520841722 30.1160883,0.00100750072 29.405581,9.52185819e-06 L22.594418,9.52185819e-06 Z M24.258111,6 L28.103543,6 L29.287936,10.2585449 C29.4231328,10.7588846 29.8287576,11.1732766 30.3185118,11.3113955 C31.5623645,11.6614724 32.7349394,12.1613747 33.8409275,12.8042433 C34.2774683,13.060905 34.845027,13.0670851 35.2868099,12.8199324 L39.1014785,10.6513745 L41.8086626,13.4170715 L39.6859841,17.2984558 C39.4394335,17.7471524 39.4394335,18.3269431 39.6859841,18.7755895 C40.3152469,19.9055024 40.8199596,21.1191406 41.16263,22.3898527 C41.2951147,22.8865718 41.6936762,23.2999178 42.1778241,23.4427284 L46.3616541,24.6526957 L46.3616541,28.5655586 L42.1778241,29.7912653 C41.69723,29.9312599 41.2996775,30.337415 41.16263,30.8284017 C40.8199596,32.0991138 40.3152469,33.3127519 39.6859841,34.4426649 C39.4394335,34.8913112 39.4394335,35.4711019 39.6859841,35.9197986 L41.8086626,39.8169171 L39.1014785,42.5668749 L35.2868099,40.3983169 C34.845027,40.1512145 34.2774683,40.1573996 33.8409275,40.4139054 C32.7349394,41.0568043 31.5623645,41.5723805 30.3185118,41.9224675 C29.8323163,42.0578357 29.4277202,42.4649966 29.287936,42.9596038 L28.103543,47.2338629 L24.258111,47.2338629 L23.0737179,42.9596038 C22.9339337,42.4649966 22.5293377,42.0578357 22.0431422,41.9224675 C20.7992944,41.5723805 19.6267145,41.0568043 18.5207265,40.4139054 C18.0841856,40.1572487 17.5166269,40.1510636 17.074844,40.3983169 L13.2601755,42.5668749 L10.5529914,39.8169171 L12.6756698,35.9197986 C12.9222205,35.4711019 12.9222205,34.8913112 12.6756698,34.4426649 C12.0464021,33.3127519 11.5417042,32.0991138 11.199024,30.8284017 C11.0619764,30.337415 10.664424,29.9312599 10.1838299,29.7912653 L6,28.5655586 L6,24.6526957 L10.1838299,23.4427284 C10.6679778,23.2999178 11.0665393,22.8865718 11.199024,22.3898527 C11.5417042,21.1191406 12.0464021,19.9055024 12.6756698,18.7755895 C12.9222205,18.3269431 12.9222205,17.7471524 12.6756698,17.2984558 L10.5529914,13.4170967 L13.2601755,10.6513996 L17.074844,12.8199575 C17.5166269,13.0670851 18.0841856,13.060905 18.5207265,12.8042685 C19.6267145,12.1613998 20.7992944,11.6614975 22.0431422,11.3114206 C22.5328964,11.1733017 22.9385212,10.7589098 23.0737179,10.25857 L24.258111,6 Z M25.9999995,14.0957336 C19.2982355,14.0957336 13.8297996,19.6694174 13.8297996,26.4999963 C13.8297996,33.330626 19.2982355,38.9042534 25.9999995,38.9042534 C32.7017635,38.9042534 38.1701994,33.330626 38.1701994,26.4999963 C38.1701994,19.6694174 32.7017635,14.0957336 25.9999995,14.0957336 Z M25.9999995,17.4787128 C30.9079535,17.4787128 34.851054,21.4976921 34.851054,26.4999963 C34.851054,31.5022949 30.9079535,35.5212742 25.9999995,35.5212742 C21.0920455,35.5212742 17.148945,31.5022949 17.148945,26.4999963 C17.148945,21.4976921 21.0920455,17.4787128 25.9999995,17.4787128 Z" id="Shape"></path>
                        </g>
                    </g>
                    <g id="Gear" transform="translate(71.544683, 80.743726) rotate(-30.000000) translate(-71.544683, -80.743726) translate(54.544683, 63.743726)" fill="#FFFFFF">
                        <g id="Group" transform="translate(0.861080, 0.371528)">
                            <path d="M14.3387653,5.92870412e-06 C13.8793847,-0.00174939069 13.4455089,0.386576408 13.3294578,0.756987417 L12.4079162,3.9823868 C11.7604534,4.195128 11.1394678,4.44570336 10.5428916,4.75033904 L7.61370588,3.1266686 C7.21600716,2.90363421 6.67378262,2.97907432 6.35207158,3.30220054 L3.31317852,6.35206798 C2.99494651,6.67225931 2.91985404,7.20730874 3.13764679,7.60273305 L4.76131528,10.5428965 C4.45973773,11.1341583 4.20475332,11.755752 3.99336397,12.3969351 L0.767968511,13.3184778 C0.327752487,13.4423682 -0.00274567448,13.8814789 1.71949383e-05,14.3387747 L1.71949383e-05,18.6612523 C0.00212357569,19.114897 0.331277164,19.5476534 0.767968511,19.6705609 L3.98239323,20.5811153 C4.19438641,21.2271781 4.45781039,21.8507027 4.76131528,22.4461421 L3.13764679,25.3863021 C2.91985404,25.7817405 2.99494651,26.3167969 3.31317852,26.6369672 L6.35207158,29.6868346 C6.67378262,30.0099538 7.21600716,30.0853975 7.61370588,29.8623666 L10.5428916,28.2386961 C11.1398645,28.5435249 11.75999,28.8048218 12.4079162,29.0176367 L13.3294578,32.2320478 C13.4523511,32.6687361 13.885114,32.998034 14.3387653,33 L18.6612341,33 C19.1148853,32.9964894 19.5476483,32.6687361 19.6705415,32.2320478 L20.5920831,29.0176367 C21.2400094,28.8048218 21.8601349,28.5435249 22.4571077,28.2386961 L25.3862935,29.8623666 C25.7839922,30.0853975 26.3262167,30.0099538 26.6479278,29.6868346 L29.6868208,26.6369672 C30.0050528,26.3167969 30.0801453,25.7817405 29.8623526,25.3863021 L28.2386841,22.4461421 C28.5421855,21.8507027 28.8056165,21.2271781 29.0176061,20.5811153 L32.2320309,19.6705609 C32.6687223,19.5476534 32.9979987,19.114897 32.9999822,18.6612523 L32.9999822,14.3387747 C33.0027907,13.8814789 32.6722469,13.4423682 32.2320309,13.3184778 L29.0066354,12.3969351 C28.795246,11.755752 28.5402581,11.1341583 28.2386841,10.5428965 L29.8623526,7.60273305 C30.0801453,7.20730874 30.0050528,6.67225931 29.6868208,6.35206798 L26.6479278,3.30220054 C26.3262167,2.97907432 25.7839922,2.90363421 25.3862935,3.1266686 L22.4571077,4.75033904 C21.8605316,4.44570336 21.2395459,4.195128 20.5920831,3.9823868 L19.6705415,0.756987417 C19.5436953,0.324297676 19.112133,0.00062731177 18.6612341,5.92870416e-06 L14.3387653,5.92870416e-06 Z M15.3945704,3.73584906 L17.8349407,3.73584906 L18.5865748,6.38739588 C18.6723727,6.69892817 18.9297885,6.95694579 19.240594,7.04294436 C20.0299621,7.26091677 20.7740962,7.57217667 21.4759732,7.9724534 C21.7530087,8.13226163 22.1131902,8.13610961 22.3935525,7.98222205 L24.8143998,6.63198787 L26.5324205,8.35402566 L25.1853361,10.7707366 C25.0288713,11.0501138 25.0288713,11.4111155 25.1853361,11.6904614 C25.5846759,12.3939921 25.9049743,13.1496536 26.1224383,13.9408517 C26.2065151,14.2501296 26.4594483,14.507496 26.766696,14.5964158 L29.4218189,15.3497917 L29.4218189,17.7861026 L26.766696,18.5492784 C26.4617036,18.6364448 26.2094107,18.8893339 26.1224383,19.1950426 C25.9049743,19.9862407 25.5846759,20.7419021 25.1853361,21.4454329 C25.0288713,21.7247787 25.0288713,22.0857804 25.1853361,22.3651576 L26.5324205,24.7916654 L24.8143998,26.5039032 L22.3935525,25.153669 C22.1131902,24.9998128 21.7530087,25.0036639 21.4759732,25.1633751 C20.7740962,25.5636706 20.0299621,25.8846897 19.240594,26.1026684 C18.9320469,26.1869543 18.675284,26.4404696 18.5865748,26.7484326 L17.8349407,29.4097637 L15.3945704,29.4097637 L14.6429364,26.7484326 C14.5542272,26.4404696 14.2974643,26.1869543 13.9889171,26.1026684 C13.1995522,25.8846897 12.455415,25.5636706 11.7535379,25.1633751 C11.4765024,25.00357 11.1163209,24.9997189 10.8359587,25.153669 L8.41511137,26.5039032 L6.69709068,24.7916654 L8.04417509,22.3651576 C8.20063992,22.0857804 8.20063992,21.7247787 8.04417509,21.4454329 C7.64483211,20.7419021 7.32454307,19.9862407 7.10707289,19.1950426 C7.02010044,18.8893339 6.76780754,18.6364448 6.46281513,18.5492784 L3.80769231,17.7861026 L3.80769231,15.3497917 L6.46281513,14.5964158 C6.77006283,14.507496 7.02299608,14.2501296 7.10707289,13.9408517 C7.32454307,13.1496536 7.64483211,12.3939921 8.04417509,11.6904614 C8.20063992,11.4111155 8.20063992,11.0501138 8.04417509,10.7707366 L6.69709068,8.35404132 L8.41511137,6.63200352 L10.8359587,7.9822377 C11.1163209,8.13610961 11.4765024,8.13226163 11.7535379,7.97246905 C12.455415,7.57219232 13.1995522,7.26093243 13.9889171,7.04296002 C14.2997227,6.95696145 14.5571384,6.69894383 14.6429364,6.38741154 L15.3945704,3.73584906 Z M16.4999997,8.77658886 C12.2469572,8.77658886 8.77660359,12.2469957 8.77660359,16.4999977 C8.77660359,20.7530313 12.2469572,24.223403 16.4999997,24.223403 C20.7530422,24.223403 24.2233958,20.7530313 24.2233958,16.4999977 C24.2233958,12.2469957 20.7530422,8.77658886 16.4999997,8.77658886 Z M16.4999997,10.8829721 C19.6146628,10.8829721 22.117015,13.3853555 22.117015,16.4999977 C22.117015,19.6146364 19.6146628,22.1170198 16.4999997,22.1170198 C13.3853366,22.1170198 10.8829843,19.6146364 10.8829843,16.4999977 C10.8829843,13.3853555 13.3853366,10.8829721 16.4999997,10.8829721 Z" id="Shape"></path>
                        </g>
                    </g>
                </g>
            </g>
        </g>
    </g>
</svg>